<svg xmlns="http://www.w3.org/2000/svg" viewBox="0 0 1600 900" role="img" aria-label="Centro de operaciones de red"><defs><linearGradient id="g" x1="0" x2="1" y1="0" y2="1"><stop offset="0" stop-color="#0f172a"/><stop offset="0.52" stop-color="#115e59"/><stop offset="1" stop-color="#1f2937"/></linearGradient><filter id="soft"><feGaussianBlur stdDeviation="18"/></filter></defs><rect width="1600" height="900" fill="url(#g)"/><g opacity=".18" stroke="#e2e8f0"><path d="M0 700h1600M0 550h1600M0 400h1600M0 250h1600"/><path d="M200 0v900M450 0v900M700 0v900M950 0v900M1200 0v900M1450 0v900"/></g><g transform="translate(160 160)"><rect x="0" y="0" width="520" height="310" rx="18" fill="#020617" opacity=".72"/><rect x="36" y="42" width="448" height="18" rx="9" fill="#14b8a6"/><rect x="36" y="92" width="160" height="150" rx="10" fill="#1f2937"/><rect x="220" y="92" width="264" height="60" rx="10" fill="#334155"/><rect x="220" y="182" width="264" height="60" rx="10" fill="#334155"/><circle cx="88" cy="168" r="38" fill="#f59e0b" opacity=".9"/><path d="M278 122h148M278 212h110" stroke="#e2e8f0" stroke-width="14" stroke-linecap="round"/></g><g transform="translate(820 220)"><rect width="560" height="360" rx="22" fill="#020617" opacity=".68"/><path d="M84 260C160 118 328 96 476 174" fill="none" stroke="#14b8a6" stroke-width="20" stroke-linecap="round"/><path d="M84 260c120-50 220-28 310 64" fill="none" stroke="#f59e0b" stroke-width="16" stroke-linecap="round"/><circle cx="100" cy="250" r="24" fill="#e2e8f0"/><circle cx="300" cy="118" r="24" fill="#e2e8f0"/><circle cx="480" cy="174" r="24" fill="#e2e8f0"/><circle cx="402" cy="324" r="24" fill="#e2e8f0"/></g><circle cx="1260" cy="148" r="86" fill="#14b8a6" opacity=".28" filter="url(#soft)"/><circle cx="320" cy="740" r="120" fill="#f59e0b" opacity=".18" filter="url(#soft)"/></svg>
